#!OML:ASF H:\Dans Jumps\Project 1\Capture day 1\Session 1\subject.ASF
:FULLY-SPECIFIED
:DEGREES
476
root 0.364529 17.7262 -2.59193 6.42636 -0.863083 -1.20724
lowerback -0.720499 -0.0525656 -0.128868
upperback 4.04138 -0.118203 1.30621
thorax 4.57221 -0.0912179 1.41509
lowerneck -11.8807 0.396686 -2.0927
upperneck 36.4112 0.69507 1.28502
head 14.4967 0.181481 1.00796
rclavicle -2.5345e-015 1.98785e-016
rhumerus -21.8372 -12.7172 -83.4006
rradius 24.168
rwrist 31.7574
rhand -18.6962 -25.8398
rfingers 7.12502
rthumb 7.5984 -55.6833
lclavicle -2.5345e-015 1.98785e-016
lhumerus -19.3184 -1.52736 88.3409
lradius 18.0306
lwrist 4.03323
lhand -25.9379 -4.54049
lfingers 7.12502
lthumb 0.605698 25.4384
rfemur -15.9841 -0.531901 18.7369
rtibia 23.4829
rfoot -12.6032 0.79269
rtoes 14.3917
lfemur -14.2047 6.55808 -17.4609
ltibia 20.4821
lfoot -9.21826 5.95567
ltoes 2.26971
477
root 0.364113 17.7265 -2.5942 6.42479 -0.852218 -1.20324
lowerback -0.718319 -0.0510139 -0.131256
upperback 4.04152 -0.116029 1.30605
thorax 4.57107 -0.0902158 1.41638
lowerneck -11.8769 0.395822 -2.09873
upperneck 36.4068 0.692787 1.2927
head 14.4937 0.180835 1.01178
rclavicle 4.52235e-015 1.03368e-014
rhumerus -21.8312 -12.7285 -83.4013
rradius 24.1754
rwrist 31.7643
rhand -18.6786 -25.8503
rfingers 7.12502
rthumb 7.6154 -55.6932
lclavicle 4.52235e-015 1.03368e-014
lhumerus -19.3093 -1.5049 88.3485
lradius 18.0465
lwrist 4.01201
lhand -25.951 -4.55722
lfingers 7.12502
lthumb 0.593074 25.4217
rfemur -15.9862 -0.539549 18.734
rtibia 23.4782
rfoot -12.5966 0.793001
rtoes 14.4006
lfemur -14.2101 6.55156 -17.464
ltibia 20.4763
lfoot -9.2053 5.94624
ltoes 2.26204
478
root 0.363744 17.7267 -2.59648 6.42209 -0.841639 -1.20404
lowerback -0.712764 -0.0489041 -0.128677
upperback 4.04154 -0.113277 1.30669
thorax 4.56785 -0.0887481 1.41571
lowerneck -11.8734 0.394829 -2.10006
upperneck 36.4019 0.689776 1.29824
head 14.4906 0.180238 1.01376
rclavicle -1.63997e-015 3.77691e-015
rhumerus -21.8249 -12.7474 -83.3995
rradius 24.1801
rwrist 31.7814
rhand -18.6527 -25.8559
rfingers 7.12502
rthumb 7.64035 -55.6979
lclavicle -1.63997e-015 3.77691e-015
lhumerus -19.3025 -1.49314 88.3583
lradius 18.0661
lwrist 4.00222
lhand -25.9579 -4.56578
lfingers 7.12502
lthumb 0.586449 25.4132
rfemur -15.9857 -0.545624 18.7362
rtibia 23.4713
rfoot -12.5894 0.792124
rtoes 14.41
lfemur -14.2161 6.5469 -17.4617
ltibia 20.474
lfoot -9.19637 5.93627
ltoes 2.25673
479
root 0.363407 17.7269 -2.5987 6.41801 -0.831055 -1.21053
lowerback -0.706828 -0.0464202 -0.119784
upperback 4.04296 -0.110264 1.30801
thorax 4.56586 -0.0869394 1.41222
lowerneck -11.8714 0.393557 -2.09817
upperneck 36.3959 0.685634 1.30333
head 14.4874 0.179543 1.01481
rclavicle 3.72721e-015 -7.35503e-015
rhumerus -21.8156 -12.7762 -83.3964
rradius 24.1803
rwrist 31.8091
rhand -18.6251 -25.8553
rfingers 7.12502
rthumb 7.66705 -55.6963
lclavicle 3.72721e-015 -7.35503e-015
lhumerus -19.2965 -1.4911 88.3699
lradius 18.0882
lwrist 4.00079
lhand -25.9657 -4.56881
lfingers 7.12502
lthumb 0.578852 25.4101
rfemur -15.9819 -0.549454 18.7449
rtibia 23.4616
rfoot -12.5804 0.787339
rtoes 14.4123
lfemur -14.2221 6.54205 -17.4527
ltibia 20.4753
lfoot -9.19026 5.92749
ltoes 2.25495
